<svg xmlns="http://www.w3.org/2000/svg" xmlns:svg="http://www.w3.org/2000/svg" xmlns:xlink="http://www.w3.org/1999/xlink" version="1.0" height="920.0115966796875pt" width="885.0105285644531pt" viewBox="65 307 893.0105285644531 926.0115966796875" ><defs><style type="text/css">
            @font-face {
                font-family: 'noto_regular';
                src: url('https://app.creately.com/diagram/assets/fonts/noto/noto-regular.woff') format('woff'),
                     url('https://app.creately.com/diagram/assets/fonts/noto/noto-regular.woff2') format('woff2');
                font-weight: normal;
                font-style: normal;
            }
        p {
            margin: 0;
        }
        </style></defs><defs><style>
            span{ display: inline-block; }
        </style></defs><g id="7k54a3c9lb"><g transform="translate(85 318.65)"><radialGradient id="0490a" cx="429.78699016571045" cy="429.78699016571045" r="859.5739803314209" fx="429.78699016571045" fy="429.78699016571045" fr="0" gradientUnits="userSpaceOnUse"><stop offset="0%" stop-color="rgba(255,255,255,1)"/><stop offset="100%" stop-color="rgba(180,226,234,1)"/></radialGradient><rect x="0" y="0" width="859.5739803314209" height="903.3488616943359" fill="url(#0490a)" stroke="#128cb5" stroke-width="20" stroke-linecap="round" stroke-linejoin="round"/></g><g transform="translate(490.78699016571045, 761.3244308471681) rotate(0, 24, 9)" width="48" height="18"><text text-decoration="none" x="0.5" fill="rgb(101, 101, 101)" font-size="10pt" font-family="noto_regular"  y="15">Process</text><text text-decoration="none" x="47.5" fill="#4b4b4b" font-size="10pt" font-family="noto_regular"  y="15"></text></g></g><g id="7sl7tu6ple"><g transform="translate(475 425)"><linearGradient id="58d7a" x1="75.10476875305176" y1="-22.305795431137085" x2="75.10476875305176" y2="44.61159086227417" gradientUnits="userSpaceOnUse"><stop offset="0%" stop-color="rgba(255,255,255,1)"/><stop offset="100%" stop-color="rgba(0,206,209,1)"/></linearGradient><path d="M 22.305795431137085,44.61159086227417 L 22.305795431137085,44.61159086227417 L 22.305795431137085,44.61159086227417 A 22.305795431137085 22.305795431137085 0 0 1 0 22.30579543113709 L 0,22.305795431137085 L 0,22.30579543113709 A 22.305795431137085 22.305795431137085 0 0 1 22.305795431137085 0 L 127.90374207496643,0 L 127.90374207496643,0 L 127.90374207496643,0 A 22.305795431137085 22.305795431137085 0 0 1 150.20953750610352 22.305795431137085 L 150.20953750610352,22.305795431137085 L 150.20953750610352,22.305795431137085 A 22.305795431137085 22.305795431137085 0 0 1 127.90374207496643 44.61159086227417 L 22.305795431137085,44.61159086227417 Z" fill="url(#58d7a)" stroke="#097575" stroke-width="2" stroke-linecap="round" stroke-linejoin="round"/></g><g transform="translate(515.1047687530518, 437.8057954311371) rotate(0, 35, 9.5)" width="70" height="19"><text text-decoration="none" x="4" fill="rgb(0, 0, 0)" font-weight="bold" font-size="9pt" font-family="Arial"  y="15">INITIATION</text><text text-decoration="none" x="66" fill="#4b4b4b" font-size="10pt" font-family="noto_regular"  y="15"></text></g></g><g id="1eiyjvvjs2"><g transform="translate(480 540) rotate(-2.8490023245946966e-15)"><linearGradient id="dbeb9" x1="70.74823760986328" y1="-32.51234436035156" x2="70.74823760986328" y2="65.02468872070312" gradientUnits="userSpaceOnUse"><stop offset="0%" stop-color="rgba(255,255,255,1)"/><stop offset="100%" stop-color="rgba(109,181,27,1)"/></linearGradient><rect x="0" y="0" width="141.49647521972656" height="65.02468872070312" fill="url(#dbeb9)" stroke="#407208" stroke-width="2" stroke-linecap="round" stroke-linejoin="round"/></g><g transform="translate(481.2482376098633, 555.5123443603516) rotate(0, 69.5, 17)" width="139" height="34"><text text-decoration="none" x="28" fill="rgb(0, 0, 0)" font-weight="bold" font-size="9pt" font-family="Arial"  y="11">REQUIREMENT&#160;</text><text text-decoration="none" x="10" fill="rgb(0, 0, 0)" font-weight="bold" font-size="9pt" font-family="Arial"  y="30">ANALYSIS/PLANNING</text><text text-decoration="none" x="129" fill="#4b4b4b" font-size="10pt" font-family="noto_regular"  y="30"></text></g></g><g id="1ho1mp4hwe"><g transform="translate(70 310)"><path d="M 4.916725158691406,2.8750362396240234 L 880.0938034057617,2.8750362396240234 L 880.0938034057617,917.1365604400635 L 4.916725158691406,917.1365604400635 Z" fill="rgb(255, 255, 255)" stroke="rgb(85, 115, 183)" stroke-width="1.5" vector-effect="non-scaling-stroke" stroke-dasharray=""/></g></g><g id="veodvbjfl6"><g><path d="M 550,470 L 550,540" fill="none" stroke="#407208" stroke-width="2" stroke-linecap="round" stroke-linejoin="round"/><path d="M 550,540 L 555.75,531.304347826087 L 544.25,531.304347826087 Z" fill="rgb(64,114,8)" stroke="#407208" stroke-width="2" stroke-linecap="round" stroke-linejoin="round"/></g></g><g id="2gh7lcp44t"><g transform="translate(465 645) rotate(-2.458319728574939e-15)"><linearGradient id="b799a" x1="82.80360060930252" y1="-31.999964654445648" x2="82.80360060930252" y2="63.999929308891296" gradientUnits="userSpaceOnUse"><stop offset="0%" stop-color="rgba(255,255,255,1)"/><stop offset="100%" stop-color="rgba(109,181,27,1)"/></linearGradient><rect x="0" y="0" width="165.60720121860504" height="63.999929308891296" fill="url(#b799a)" stroke="#407208" stroke-width="2" stroke-linecap="round" stroke-linejoin="round"/></g><g transform="translate(469.8036006093025, 667.4999646544456) rotate(0, 78, 9.5)" width="156" height="19"><text text-decoration="none" x="11" fill="rgb(0, 0, 0)" font-weight="bold" font-size="9pt" font-family="Arial"  y="15">DESIGN/ARCHITECTURE</text><text text-decoration="none" x="145" fill="#4b4b4b" font-size="10pt" font-family="noto_regular"  y="15"></text></g></g><g id="vnjstpk4s6"><g><path d="M 550,605 L 550,645" fill="none" stroke="#407208" stroke-width="2" stroke-linecap="round" stroke-linejoin="round"/><path d="M 550,645 L 555.75,636.304347826087 L 544.25,636.304347826087 Z" fill="rgb(64,114,8)" stroke="#407208" stroke-width="2" stroke-linecap="round" stroke-linejoin="round"/></g></g><g id="ag43n6igst"><g transform="translate(320 835)"><path d="M 65.34319058060649,1 L 1,48.575 L 65.34319058060649,96.15 L 129.68638116121298,48.575 L 65.34319058060649,1" fill="rgb(250, 244, 147)" stroke="rgb(9, 117, 117)" stroke-width="2" stroke-linecap="round" stroke-linejoin="round" stroke-dasharray="0 0"/></g><g transform="translate(339.3497919538148, 874.0499473968682) rotate(0, 0, 0)" width="94" height="19"><text text-decoration="none" x="0" fill="#000000" font-weight="bold" font-size="9pt" font-family="Arial"  y="15">ISSUES/BUGS&#160;</text><text text-decoration="none" x="78" fill="#4b4b4b" font-size="10pt" font-family="noto_regular"  y="15"></text></g></g><g id="ar9gfh88h4"><g transform="translate(490 1140)"><path d="M 115.6606748680274,7.574999999999999 C 111.15042876110476,2.9984374999999996 105.60322487950327,0.7890625 99.53407402435941,0.7890625 L 23.75639049013456,0.7890625 C 17.512101281742257,0.7890625 11.964897400140764,2.9984374999999996 7.6297896464665715,7.574999999999999 C 3.121277582645417,12.149984374999999 0.867021550734838,17.990625 0.867021550734838,24.4609375 C 0.867021550734838,30.7734375 3.121277582645417,36.454687500000006 7.629789646466575,41.189062500000006 C 11.964897400140766,45.765625 17.512101281742257,48.1328125 23.756390490134564,48.1328125 L 99.53407402435941,48.1328125 C 105.60322487950327,48.1328125 111.15042876110476,45.765625 115.6606748680274,41.189062500000006 C 120.16918693184854,36.454687500000006 122.25003865361215,30.7734375 122.25003865361215,24.460937500000004 C 122.25003865361215,17.990625 120.16918693184854,12.149984374999999 115.6606748680274,7.574999999999999" fill="rgb(147, 233, 244)" stroke="rgb(9, 117, 117)" stroke-width="2" stroke-linecap="round" stroke-linejoin="round" vector-effect="non-scaling-stroke" stroke-dasharray=""/></g><g transform="translate(506.3201031734346, 1153.7013537545317) rotate(0, 0, 0)" width="91" height="19"><text text-decoration="none" x="0" fill="#000000" font-weight="bold" font-size="9pt" font-family="Arial"  y="15">ACCEPTANCE&#160;</text><text text-decoration="none" x="80" fill="#4b4b4b" font-size="10pt" font-family="noto_regular"  y="15"></text></g></g><g id="2nyw3b5fxr"><g><path d="M 550,935 L 550,955 L 467.5,955 L 385,955 L 385,930" fill="none" stroke="#407208" stroke-width="2" stroke-linecap="round" stroke-linejoin="round"/><path d="M 385,930 L 379.25,938.695652173913 L 390.75,938.695652173913 Z" fill="rgb(64,114,8)" stroke="#407208" stroke-width="2" stroke-linecap="round" stroke-linejoin="round"/></g></g><g id="ehx0sddsmv"><g><path d="M 385,835 L 385,790 L 485,790" fill="none" stroke="#407208" stroke-width="2" stroke-linecap="round" stroke-linejoin="round"/><path d="M 485,790 L 476.30434782608694,784.25 L 476.30434782608694,795.75 Z" fill="rgb(64,114,8)" stroke="#407208" stroke-width="2" stroke-linecap="round" stroke-linejoin="round"/></g></g><g id="29pe13q8m8"><g transform="translate(590 360)"><path d="M 22.213321783065794,57.25706637573242 C 35.757666766166686,64.18682043790817 44.530945452690126,65.5032824561596 44.530945452690126,65.5032824561596 C 44.530945452690126,65.5032824561596 47.280045176982874,80.92788222932815 35.51330234622955,83.43861649012565 C 23.746559515476225,85.9482882311344 63.95344675683975,85.23427493309974 71.42891196918488,65.5032824561596 L 80.61939820194245,65.5032824561596 C 80.61939820194245,65.5032824561596 115.36831672239305,63.874439620018 132.6213387861252,54.72508171916008 C 133.82379053544997,54.21932229971886 137.61888917922974,51.65546204948425 139.59764496994018,49.87361636376381 C 146.7184837679863,43.45068424081802 158.5746282157898,25.425036024808882 130.42950914144515,10.850452082633975 C 129.59807410287854,10.340442584037783 126.3334250535965,8.712662267684939 125.58990160512923,8.432157043457035 C 117.07737763500214,5.220159722089772 109.30241700553893,3.7166942210197487 109.30241700553893,3.7166942210197487 C 109.30241700553893,3.7166942210197487 83.00940143108367,-3.4500017540454824 45.319169709682456,3.7166942210197487 C 32.08177027845382,6.123301542520527 26.02928080415725,8.804038969516759 26.02928080415725,8.804038969516759 C 26.02928080415725,8.804038969516759 -28.224090502738953,30.2903141374588 22.213321783065794,57.25706637573242 Z" fill="rgb(246, 246, 246)" stroke="rgb(98, 98, 98)" stroke-width="1.5" vector-effect="non-scaling-stroke"/></g><g transform="translate(620.45, 368.5) rotate(0, 45.5, 0)" width="91" height="47"><text text-decoration="none" x="4" fill="#000000" font-size="8pt" font-family="Arial"  y="10">PHASE&#160;</text><text text-decoration="none" x="42" fill="#000000" font-size="8pt" font-family="Arial"  y="10">WHEN&#160;&#160;</text><text text-decoration="none" x="80" fill="#000000" font-size="8pt" font-family="Arial"  y="10">A</text><text text-decoration="none" x="87" fill="#000000" font-size="8pt" font-family="Arial"  y="10"></text><text text-decoration="none" x="12" fill="#000000" font-size="8pt" font-family="Arial"  y="24">NEW&#160;</text><text text-decoration="none" x="39" fill="#000000" font-size="8pt" font-family="Arial"  y="24">NEED&#160;</text><text text-decoration="none" x="69" fill="#000000" font-size="8pt" font-family="Arial"  y="24">IS</text><text text-decoration="none" x="79" fill="#000000" font-size="8pt" font-family="Arial"  y="24"></text><text text-decoration="none" x="13.5" fill="#000000" font-size="8pt" font-family="Arial"  y="43">REQUESTED&#160;</text><text text-decoration="none" x="77.5" fill="#4b4b4b" font-size="10pt" font-family="noto_regular"  y="43"></text></g></g><g id="5xr1ifu5nn"><g transform="translate(485 765)"><linearGradient id="8f7e1" x1="63.87861633300781" y1="-24.519081115722656" x2="63.87861633300781" y2="49.03816223144531" gradientUnits="userSpaceOnUse"><stop offset="0%" stop-color="rgba(255,255,255,1)"/><stop offset="100%" stop-color="rgba(109,181,27,1)"/></linearGradient><rect x="0" y="0" width="127.75723266601562" height="49.03816223144531" fill="url(#8f7e1)" stroke="#407208" stroke-width="2" stroke-linecap="round" stroke-linejoin="round"/></g><g transform="translate(503.3786163330078, 780.0190811157227) rotate(0, 45.5, 9.5)" width="91" height="19"><text text-decoration="none" x="10.5" fill="rgb(0, 0, 0)" font-weight="bold" font-size="9pt" font-family="Arial"  y="15">Development</text><text text-decoration="none" x="80.5" fill="#4b4b4b" font-size="10pt" font-family="noto_regular"  y="15"></text></g></g><g id="266utbbslv"><g><path d="M 550,710 L 550,765" fill="none" stroke="#407208" stroke-width="2" stroke-linecap="round" stroke-linejoin="round"/><path d="M 550,765 L 555.75,756.304347826087 L 544.25,756.304347826087 Z" fill="rgb(64,114,8)" stroke="#407208" stroke-width="2" stroke-linecap="round" stroke-linejoin="round"/></g></g><g id="28wotzjfg1"><g transform="translate(485 885)"><linearGradient id="8f7e1" x1="63.87861633300781" y1="-24.519081115722656" x2="63.87861633300781" y2="49.03816223144531" gradientUnits="userSpaceOnUse"><stop offset="0%" stop-color="rgba(255,255,255,1)"/><stop offset="100%" stop-color="rgba(109,181,27,1)"/></linearGradient><rect x="0" y="0" width="127.75723266601562" height="49.03816223144531" fill="url(#8f7e1)" stroke="#407208" stroke-width="2" stroke-linecap="round" stroke-linejoin="round"/></g><g transform="translate(520.3786163330078, 900.0190811157227) rotate(0, 28.5, 9.5)" width="57" height="19"><text text-decoration="none" x="4.5" fill="rgb(0, 0, 0)" font-weight="bold" font-size="9pt" font-family="Arial"  y="15">TESTING</text><text text-decoration="none" x="52.5" fill="#4b4b4b" font-size="10pt" font-family="noto_regular"  y="15"></text></g></g><g id="2pp1sb877c"><g><path d="M 550,815 L 550,885" fill="none" stroke="#407208" stroke-width="2" stroke-linecap="round" stroke-linejoin="round"/><path d="M 550,885 L 555.75,876.304347826087 L 544.25,876.304347826087 Z" fill="rgb(64,114,8)" stroke="#407208" stroke-width="2" stroke-linecap="round" stroke-linejoin="round"/></g></g><g id="1gtzmk7mth"><g transform="translate(485 1000)"><linearGradient id="8f7e1" x1="63.87861633300781" y1="-24.519081115722656" x2="63.87861633300781" y2="49.03816223144531" gradientUnits="userSpaceOnUse"><stop offset="0%" stop-color="rgba(255,255,255,1)"/><stop offset="100%" stop-color="rgba(109,181,27,1)"/></linearGradient><rect x="0" y="0" width="127.75723266601562" height="49.03816223144531" fill="url(#8f7e1)" stroke="#407208" stroke-width="2" stroke-linecap="round" stroke-linejoin="round"/></g><g transform="translate(489.8786163330078, 1015.0190811157227) rotate(0, 59, 9.5)" width="118" height="19"><text text-decoration="none" x="6.5" fill="rgb(0, 0, 0)" font-weight="bold" font-size="9pt" font-family="Arial"  y="15">IMPLEMENTATION</text><text text-decoration="none" x="111.5" fill="#4b4b4b" font-size="10pt" font-family="noto_regular"  y="15"></text></g></g><g id="6sk5ua0rpm"><g><path d="M 550,935 L 550,1000" fill="none" stroke="#407208" stroke-width="2" stroke-linecap="round" stroke-linejoin="round"/><path d="M 550,1000 L 555.75,991.304347826087 L 544.25,991.304347826087 Z" fill="rgb(64,114,8)" stroke="#407208" stroke-width="2" stroke-linecap="round" stroke-linejoin="round"/></g></g><g id="1fd1qgp64a"><g><path d="M 550,1050 L 550,1140" fill="none" stroke="#407208" stroke-width="2" stroke-linecap="round" stroke-linejoin="round"/><path d="M 550,1140 L 555.75,1131.304347826087 L 544.25,1131.304347826087 Z" fill="rgb(64,114,8)" stroke="#407208" stroke-width="2" stroke-linecap="round" stroke-linejoin="round"/></g></g><g id="1zcxgcawz0"><g transform="translate(320 1000)"><linearGradient id="8f7e1" x1="63.87861633300781" y1="-24.519081115722656" x2="63.87861633300781" y2="49.03816223144531" gradientUnits="userSpaceOnUse"><stop offset="0%" stop-color="rgba(255,255,255,1)"/><stop offset="100%" stop-color="rgba(109,181,27,1)"/></linearGradient><rect x="0" y="0" width="127.75723266601562" height="49.03816223144531" fill="url(#8f7e1)" stroke="#407208" stroke-width="2" stroke-linecap="round" stroke-linejoin="round"/></g><g transform="translate(335.3786163330078, 1015.0190811157227) rotate(0, 48.5, 9.5)" width="97" height="19"><text text-decoration="none" x="6.5" fill="rgb(0, 0, 0)" font-weight="bold" font-size="9pt" font-family="Arial"  y="15">MAINTENANCE</text><text text-decoration="none" x="90.5" fill="#4b4b4b" font-size="10pt" font-family="noto_regular"  y="15"></text></g></g><g id="6i5hu38iyi"><g><path d="M 485,1025 L 450,1025" fill="none" stroke="#407208" stroke-width="2" stroke-linecap="round" stroke-linejoin="round"/><path d="M 450,1025 L 458.69565217391306,1030.75 L 458.69565217391306,1019.25 Z" fill="rgb(64,114,8)" stroke="#407208" stroke-width="2" stroke-linecap="round" stroke-linejoin="round"/></g></g><g id="9fq79txgiv"><g transform="translate(180 870)"><path d="M 70.50645423777199,1 L 1,52.50128869204013 L 70.50645423777199,104.00257738408025 L 140.01290847554398,52.50128869204013 L 70.50645423777199,1" fill="rgb(250, 250, 147)" stroke="rgb(9, 117, 117)" stroke-width="2" stroke-linecap="round" stroke-linejoin="round" stroke-dasharray="0 0"/></g><g transform="translate(213.40255151762378, 897.4997026017569) rotate(0, 0, 0)" width="70" height="19"><text text-decoration="none" x="0" fill="#000000" font-size="8pt" font-family="Arial"  y="15">IS&#160;</text><text text-decoration="none" x="13" fill="#000000" font-size="8pt" font-family="Arial"  y="15">DEVELOP&#160;</text><text text-decoration="none" x="63" fill="#4b4b4b" font-size="10pt" font-family="noto_regular"  y="15"></text></g><g transform="translate(203.4017875901915, 913.4995295700518) rotate(0, 0, 0)" width="94" height="19"><text text-decoration="none" x="0" fill="#000000" font-size="8pt" font-family="Arial"  y="15">MENT&#160;&#160;</text><text text-decoration="none" x="37" fill="#000000" font-size="8pt" font-family="Arial"  y="15">NEEDED?&#160;</text><text text-decoration="none" x="85" fill="#4b4b4b" font-size="10pt" font-family="noto_regular"  y="15"></text></g></g><g id="5ptdmsx6vu"><g><path d="M 250,870 L 250,790 L 485,790" fill="none" stroke="#407208" stroke-width="2" stroke-linecap="round" stroke-linejoin="round"/><path d="M 485,790 L 476.30434782608694,784.25 L 476.30434782608694,795.75 Z" fill="rgb(64,114,8)" stroke="#407208" stroke-width="2" stroke-linecap="round" stroke-linejoin="round"/></g></g><g id="1z6rwxpc9w"><g transform="translate(605 480)"><path d="M 16.428374276161193,40.41689614105224 C 26.445406887531277,45.30850459992885 32.933887417316434,46.237775204122066 32.933887417316434,46.237775204122066 C 32.933887417316434,46.237775204122066 34.96704750180244,57.125766617417334 26.26468154668808,58.898055913388724 C 17.562315591573714,60.66959519273042 47.298246062994004,60.16558401757478 52.826898715496064,46.237775204122066 L 59.62393470525742,46.237775204122066 C 59.62393470525742,46.237775204122066 85.32329856991768,45.087999710798265 98.08316882371902,38.62960651248694 C 98.97246973872186,38.27259859675169 101.77922244071961,36.4628084692955 103.24265690803529,35.20503058129549 C 108.50903741955757,30.67118005478382 117.2775224018097,17.94714793199301 96.46215067505837,7.659169822454455 C 95.84724372267722,7.299161840200426 93.4327972483635,6.150136363506319 92.88290733933448,5.952131973266604 C 86.58727397203445,3.684831701695922 80.8371225786209,2.623558170676234 80.8371225786209,2.623558170676234 C 80.8371225786209,2.623558170676234 61.391516697406765,-2.43530399662256 33.51683683991431,2.623558170676234 C 23.726812888383858,4.32234583693743 19.250554751157754,6.2146377936601676 19.250554751157754,6.2146377936601676 C 19.250554751157754,6.2146377936601676 -20.87377686738968,21.3814740793705 16.428374276161193,40.41689614105224 Z" fill="rgb(246, 246, 246)" stroke="rgb(98, 98, 98)" stroke-width="1.5" vector-effect="non-scaling-stroke"/></g><g transform="translate(624.65, 486) rotate(0, 36.5, 0)" width="73" height="33"><text text-decoration="none" x="1" fill="#000000" font-size="8pt" font-family="Arial"  y="10">PRELIMINARY</text><text text-decoration="none" x="72" fill="#000000" font-size="8pt" font-family="Arial"  y="10"></text><text text-decoration="none" x="9" fill="#000000" font-size="8pt" font-family="Arial"  y="29">ANALYSIS&#160;</text><text text-decoration="none" x="64" fill="#4b4b4b" font-size="10pt" font-family="noto_regular"  y="29"></text></g></g><g id="1jgjxxlfji"><g transform="translate(630 605)"><path d="M 29.328150267124176,53.88901498413086 C 47.21068889927864,60.41113782644271 58.79400985264778,61.65016116309166 58.79400985264778,61.65016116309166 C 58.79400985264778,61.65016116309166 62.42363403046131,76.16743459177017 46.88805563902855,78.53047909903526 C 31.352477247595786,80.89252358746528 84.43745221459865,80.22051093029975 94.30727579188347,61.65016116309166 L 106.44143401885033,61.65016116309166 C 106.44143401885033,61.65016116309166 152.3202770816088,60.1171322889328 175.09936562085153,51.50597010016442 C 176.68695733439924,51.02996113467217 181.6976092481613,48.61691568565369 184.31015174579622,46.93988409924507 C 193.71176364052295,40.894770241260524 209.36537859058382,23.929450704336166 172.20550265848635,10.212192343711857 C 171.10776266324518,9.732183302879337 166.79746099734308,8.200154447555544 165.81579028475284,7.936149475097659 C 154.5767426273823,4.913092536687855 144.31149657869338,3.49806588506699 144.31149657869338,3.49806588506699 C 144.31149657869338,3.49806588506699 109.59694468617438,-3.2470611574649775 59.83469884455202,3.49806588506699 C 42.35741906368731,5.763108546495441 34.36634404456614,8.286156067371373 34.36634404456614,8.286156067371373 C 34.36634404456614,8.286156067371373 -37.264141558885576,28.508536950111388 29.328150267124176,53.88901498413086 Z" fill="rgb(246, 246, 246)" stroke="rgb(98, 98, 98)" stroke-width="1.5" vector-effect="non-scaling-stroke"/></g><g transform="translate(668.8, 613) rotate(0, 61.5, 0)" width="123" height="47"><text text-decoration="none" x="3" fill="#000000" font-size="8pt" font-family="Arial"  y="10">TRANSFORMATION&#160;</text><text text-decoration="none" x="106" fill="#000000" font-size="8pt" font-family="Arial"  y="10">OF</text><text text-decoration="none" x="120" fill="#000000" font-size="8pt" font-family="Arial"  y="10"></text><text text-decoration="none" x="11.5" fill="#000000" font-size="8pt" font-family="Arial"  y="24">REQUIREMENTS&#160;</text><text text-decoration="none" x="96.5" fill="#000000" font-size="8pt" font-family="Arial"  y="24">TO</text><text text-decoration="none" x="111.5" fill="#000000" font-size="8pt" font-family="Arial"  y="24"></text><text text-decoration="none" x="40.5" fill="#000000" font-size="8pt" font-family="Arial"  y="43">DESIGN&#160;</text><text text-decoration="none" x="82.5" fill="#4b4b4b" font-size="10pt" font-family="noto_regular"  y="43"></text></g></g><g id="29h3c8mmft"><g transform="translate(185 1070)"><path d="M 68.90393304824829,0.75 L 0.75,40.175000000000004 L 68.90393304824829,79.60000000000001 L 137.05786609649658,40.175000000000004 L 68.90393304824829,0.75" fill="rgb(250, 147, 147)" stroke="rgb(85, 115, 183)" stroke-width="1.5" stroke-linecap="round" stroke-linejoin="round" stroke-dasharray="0 0"/></g><g transform="translate(229.39952129851295, 1083.89988272116) rotate(0, 0, 0)" width="44" height="19"><text text-decoration="none" x="0" fill="#003370" font-size="9pt" font-family="Arial"  y="15">IF&#160;</text><text text-decoration="none" x="13" fill="#003370" font-size="9pt" font-family="Arial"  y="15">NOT&#160;</text><text text-decoration="none" x="40" fill="#4b4b4b" font-size="10pt" font-family="noto_regular"  y="15"></text></g><g transform="translate(206.44976873543024, 1100.8997392866079) rotate(0, 0, 0)" width="87" height="19"><text text-decoration="none" x="0" fill="#003370" font-size="9pt" font-family="Arial"  y="15">AS&#160;</text><text text-decoration="none" x="18" fill="#003370" font-size="9pt" font-family="Arial"  y="15">EXPECTED&#160;</text><text text-decoration="none" x="81" fill="#4b4b4b" font-size="10pt" font-family="noto_regular"  y="15"></text></g></g><g id="dfrmbsrr22"><g><path d="M 185,1110 L 165,1110 L 165,842.5 L 165,575 L 480,575" fill="none" stroke="#ee1d24" stroke-width="2" stroke-linecap="round" stroke-linejoin="round" stroke-dasharray="5 5"/><path d="M 480,575 L 471.30434782608694,569.25 L 471.30434782608694,580.75 Z" fill="rgb(238,29,36)" stroke="#ee1d24" stroke-width="2" stroke-linecap="round" stroke-linejoin="round"/></g></g><g id="csnyosimke"><g><path d="M 550,1050 L 550,1110 L 320,1110" fill="none" stroke="#407208" stroke-width="2" stroke-linecap="round" stroke-linejoin="round"/><path d="M 320,1110 L 328.69565217391306,1115.75 L 328.69565217391306,1104.25 Z" fill="rgb(64,114,8)" stroke="#407208" stroke-width="2" stroke-linecap="round" stroke-linejoin="round"/></g></g><g id="duiq8u0wu2"><g><path d="M 320,1025 L 250,1025 L 250,975" fill="none" stroke="#407208" stroke-width="2" stroke-linecap="round" stroke-linejoin="round"/><path d="M 250,975 L 244.25,983.695652173913 L 255.75,983.695652173913 Z" fill="rgb(64,114,8)" stroke="#407208" stroke-width="2" stroke-linecap="round" stroke-linejoin="round"/></g></g><g id="2gflf48kzl"><g><path d="M 185,1110 L 165,1110 L 165,777.5 L 165,445 L 475,445" fill="none" stroke="#ee1d24" stroke-width="2" stroke-linecap="round" stroke-linejoin="round" stroke-dasharray="5 5"/><path d="M 475,445 L 466.30434782608694,439.25 L 466.30434782608694,450.75 Z" fill="rgb(238,29,36)" stroke="#ee1d24" stroke-width="2" stroke-linecap="round" stroke-linejoin="round"/></g></g><g id="26yzykr0zb"><g transform="translate(191.05000000000004 687.45)"><path d="M 62.52499999999999,0.75 L 0.75,44.275 L 62.52499999999999,87.8 L 124.29999999999998,44.275 L 62.52499999999999,0.75" fill="rgb(250, 147, 147)" stroke="rgb(85, 115, 183)" stroke-width="1.5" stroke-linecap="round" stroke-linejoin="round" stroke-dasharray="0 0"/></g><g transform="translate(229.04965834144835, 705.4498460273371) rotate(0, 0, 0)" width="44" height="19"><text text-decoration="none" x="0" fill="#003370" font-size="9pt" font-family="Arial"  y="15">IF&#160;</text><text text-decoration="none" x="13" fill="#003370" font-size="9pt" font-family="Arial"  y="15">NOT&#160;</text><text text-decoration="none" x="40" fill="#4b4b4b" font-size="10pt" font-family="noto_regular"  y="15"></text></g><g transform="translate(204.34988041950695, 722.4497006087109) rotate(0, 0, 0)" width="87" height="19"><text text-decoration="none" x="0" fill="#003370" font-size="9pt" font-family="Arial"  y="15">AS&#160;</text><text text-decoration="none" x="18" fill="#003370" font-size="9pt" font-family="Arial"  y="15">EXPECTED&#160;</text><text text-decoration="none" x="81" fill="#4b4b4b" font-size="10pt" font-family="noto_regular"  y="15"></text></g></g><g id="21h1kfs9p4"><g><path d="M 195.29411764705884,731.7647058823533 L 164.7058823529412,731.7647058823533" fill="none" stroke="#ee1d24" stroke-width="2" stroke-linecap="round" stroke-linejoin="round"/></g></g><g id="87uis42lsl"><g><path d="M 550,730 L 317.64705882352945,731.4705882352941" fill="none" stroke="#407208" stroke-width="2" stroke-linecap="round" stroke-linejoin="round"/><path d="M 317.64705882352945,731.4705882352941 L 326.37892851502284,737.1654384019322 L 326.3061451626479,725.6656687266901 Z" fill="rgb(64,114,8)" stroke="#407208" stroke-width="2" stroke-linecap="round" stroke-linejoin="round"/></g></g><g id="6kq4tmrjg8"><g transform="translate(480 415)"><path d="M 29.42578125,58.8515625 L 29.425781250000004,58.8515625 L 29.425781250000007,58.8515625 A 29.42578125 29.42578125 0 0 1 3.552713678800501e-15 29.42578125 L 1.0658141036401503e-14,29.425781250000007 L 1.0658141036401503e-14,29.425781250000007 A 29.42578125 29.42578125 0 0 1 29.425781250000014 3.552713678800501e-15 L 100.48159790039062,0 L 100.48159790039062,3.552713678800501e-15 L 100.48159790039062,3.552713678800501e-15 A 29.42578125 29.42578125 0 0 1 129.90737915039062 29.425781250000004 L 129.90737915039062,29.425781249999996 L 129.90737915039062,29.425781249999996 A 29.42578125 29.42578125 0 0 1 100.48159790039062 58.8515625 L 29.42578125,58.8515625 Z" fill="rgba(254,212,169,1)" stroke="#5573b7" stroke-width="1.5" stroke-linecap="round" stroke-linejoin="round"/></g><g transform="translate(496.4536895751953, 427.42578125) rotate(0, 48.5, 17)" width="97" height="34"><text text-decoration="none" x="8" fill="rgb(0, 0, 0)" font-weight="bold" font-size="9pt" font-family="Arial"  y="11">NEW&#160;</text><text text-decoration="none" x="37" fill="rgb(0, 0, 0)" font-weight="bold" font-size="9pt" font-family="Arial"  y="11">REQUEST&#160;</text><text text-decoration="none" x="17.5" fill="rgb(0, 0, 0)" font-weight="bold" font-size="9pt" font-family="Arial"  y="30">COMING&#160;</text><text text-decoration="none" x="67.5" fill="rgb(0, 0, 0)" font-weight="bold" font-size="9pt" font-family="Arial"  y="30">IN</text><text text-decoration="none" x="79.5" fill="#4b4b4b" font-size="10pt" font-family="noto_regular"  y="30"></text></g></g><g id="1uvh2wikpc"><g transform="translate(75 315) rotate(-7.000572891246486e-16)"><rect x="0" y="0" width="342.0857906341553" height="89.29492425918579" fill="rgba(255,255,255,0.01)" stroke="rgba(255,255,255,0.01)" stroke-width="NaN" stroke-linecap="round" stroke-linejoin="round"/></g><g transform="translate(105.04289531707764, 350.1474621295929) rotate(0, 141, 9.5)" width="282" height="19"><text text-decoration="none" x="25.5" fill="rgb(0, 174, 239)" font-weight="bold" font-size="10pt" font-family="Times New Roman"  y="15">SOFTWARE&#160;</text><text text-decoration="none" x="95.5" fill="rgb(0, 174, 239)" font-weight="bold" font-size="10pt" font-family="Times New Roman"  y="15">DEVELOPMENT&#160;</text><text text-decoration="none" x="188.5" fill="rgb(0, 174, 239)" font-weight="bold" font-size="10pt" font-family="Times New Roman"  y="15">LIFE&#160;</text><text text-decoration="none" x="216.5" fill="rgb(0, 174, 239)" font-weight="bold" font-size="10pt" font-family="Times New Roman"  y="15">CYCLE</text><text text-decoration="none" x="256.5" fill="#4b4b4b" font-size="10pt" font-family="noto_regular"  y="15"></text></g></g><g id="1iqw2twizl"><g transform="translate(485 1140)"><path d="M 29.42578125,58.8515625 L 29.425781250000004,58.8515625 L 29.425781250000007,58.8515625 A 29.42578125 29.42578125 0 0 1 3.552713678800501e-15 29.42578125 L 1.0658141036401503e-14,29.425781250000007 L 1.0658141036401503e-14,29.425781250000007 A 29.42578125 29.42578125 0 0 1 29.425781250000014 3.552713678800501e-15 L 100.48159790039062,0 L 100.48159790039062,3.552713678800501e-15 L 100.48159790039062,3.552713678800501e-15 A 29.42578125 29.42578125 0 0 1 129.90737915039062 29.425781250000004 L 129.90737915039062,29.425781249999996 L 129.90737915039062,29.425781249999996 A 29.42578125 29.42578125 0 0 1 100.48159790039062 58.8515625 L 29.42578125,58.8515625 Z" fill="rgba(251,175,90,1)" stroke="#5573b7" stroke-width="1.5" stroke-linecap="round" stroke-linejoin="round"/></g><g transform="translate(506.4536895751953, 1159.92578125) rotate(0, 43.5, 9.5)" width="87" height="19"><text text-decoration="none" x="5" fill="rgb(0, 0, 0)" font-weight="bold" font-size="9pt" font-family="Arial"  y="15">ACCEPTANCE</text><text text-decoration="none" x="82" fill="#4b4b4b" font-size="10pt" font-family="noto_regular"  y="15"></text></g></g><g id="1p6c0fxjit"><g transform="translate(565 355)"><path d="M 35.96445028591156,60.53009469604492 C 57.89340474653243,67.85597944974899 72.09777040815354,69.24769536662102 72.09777040815354,69.24769536662102 C 72.09777040815354,69.24769536662102 76.54869680857658,85.55402302217483 57.49776684427261,88.20828025507926 C 38.44683687996864,90.86141423058508 103.54374635910987,90.1065852587223 115.64688877153397,69.24769536662102 L 130.5267337784767,69.24769536662102 C 130.5267337784767,69.24769536662102 186.78692596507074,67.52574177455902 214.72040932035446,57.853372315168386 C 216.66723729062082,57.31870179343224 222.81168690681457,54.608281690597536 226.01538894462587,52.724579033136365 C 237.54437391352653,45.93448805856705 256.74004945182804,26.87842629122734 211.17173033118246,11.470704554557804 C 209.82559649300572,10.931541003227236 204.5399706158638,9.210710668563847 203.33616992545126,8.914170715332036 C 189.5539788546562,5.518563599348073 176.9659387693405,3.9291543803215068 176.9659387693405,3.9291543803215068 C 176.9659387693405,3.9291543803215068 134.39626545667647,-3.6472167732715564 73.37394388556478,3.9291543803215068 C 51.94194922900198,6.473332388162617 42.1426738693714,9.307310804843908 42.1426738693714,9.307310804843908 C 42.1426738693714,9.307310804843908 -45.69617771100998,32.02182191944122 35.96445028591156,60.53009469604492 Z" fill="rgb(255, 255, 255)" stroke="rgb(85, 115, 183)" stroke-width="1.5" vector-effect="non-scaling-stroke"/></g><g transform="translate(593, 363.95) rotate(0, 95, 0)" width="190" height="47"><text text-decoration="none" x="46.5" fill="#000000" font-weight="bold" font-size="8pt" font-family="Arial"  y="10">PHASE&#160;</text><text text-decoration="none" x="84.5" fill="#000000" font-weight="bold" font-size="8pt" font-family="Arial"  y="10">WHEN&#160;</text><text text-decoration="none" x="119.5" fill="#000000" font-weight="bold" font-size="8pt" font-family="Arial"  y="10">NEW</text><text text-decoration="none" x="143.5" fill="#000000" font-weight="bold" font-size="8pt" font-family="Arial"  y="10"></text><text text-decoration="none" x="15" fill="#000000" font-weight="bold" font-size="8pt" font-family="Arial"  y="24">REQUIREMENT/ENHANCEMENT</text><text text-decoration="none" x="175" fill="#000000" font-weight="bold" font-size="8pt" font-family="Arial"  y="24"></text><text text-decoration="none" x="46.5" fill="#000000" font-weight="bold" font-size="8pt" font-family="Arial"  y="43">REQUEST&#160;</text><text text-decoration="none" x="97.5" fill="#000000" font-weight="bold" font-size="8pt" font-family="Arial"  y="43">IS&#160;</text><text text-decoration="none" x="110.5" fill="#000000" font-weight="bold" font-size="8pt" font-family="Arial"  y="43">MADE&#160;</text><text text-decoration="none" x="143.5" fill="#4b4b4b" font-size="10pt" font-family="noto_regular"  y="43"></text></g></g><g id="69fkieje4r"><g transform="translate(600 465)"><path d="M 20.878813049793244,51.53691131591797 C 33.60945502877235,57.77436187267303 41.85566184639931,58.959305331707 41.85566184639931,58.959305331707 C 41.85566184639931,58.959305331707 44.4396040302515,72.84294067859649 33.3797712790966,75.1028449511528 C 22.3199385279417,77.36179285287857 60.11131841361522,76.71911165475845 67.13768043875695,58.959305331707 L 75.77603024363518,58.959305331707 C 75.77603024363518,58.959305331707 108.43733954966069,57.493188848495485 124.65385258316994,49.25787962675095 C 125.78406469285488,48.802647111415865 129.35116536617278,46.494924297332766 131.21104353427887,44.89109041452408 C 137.904084020257,39.10982874393463 149.04794741153717,22.88499760389328 122.59370138943194,9.766458921432498 C 121.81221643626688,9.30740092277527 118.74369756102563,7.84224081039429 118.04484273731707,7.589758911132816 C 110.04372528672218,4.698649890422825 102.7358606171608,3.3453851652145423 102.7358606171608,3.3453851652145423 C 102.7358606171608,3.3453851652145423 78.02244935631751,-3.105336086750027 42.59653199017047,3.3453851652145423 C 30.1543952089548,5.511565096378329 24.465520872473707,7.924488701820378 24.465520872473707,7.924488701820378 C 24.465520872473707,7.924488701820378 -26.52847308754921,27.26421963691711 20.878813049793244,51.53691131591797 Z" fill="rgb(255, 255, 255)" stroke="rgb(85, 115, 183)" stroke-width="1.5" vector-effect="non-scaling-stroke"/></g><g transform="translate(629.925, 472.65) rotate(0, 41.5, 0)" width="83" height="33"><text text-decoration="none" x="6" fill="#000000" font-weight="bold" font-size="8pt" font-family="Arial"  y="10">PRELIMINARY</text><text text-decoration="none" x="77" fill="#000000" font-weight="bold" font-size="8pt" font-family="Arial"  y="10"></text><text text-decoration="none" x="14" fill="#000000" font-weight="bold" font-size="8pt" font-family="Arial"  y="29">ANALYSIS&#160;</text><text text-decoration="none" x="69" fill="#4b4b4b" font-size="10pt" font-family="noto_regular"  y="29"></text></g></g><g id="9e4ku0w342"><g transform="translate(630 595)"><path d="M 30.935572209358213,60.52944587707519 C 49.798219873905175,67.85525210499763 62.01640133142471,69.24695310413837 62.01640133142471,69.24695310413837 C 62.01640133142471,69.24695310413837 65.84495853066444,85.55310597300529 49.4579036784172,88.20733475506306 C 33.070848826169964,90.86044029176234 89.06531357645989,90.10561941087245 99.47608402013779,69.24695310413837 L 112.27529312849045,69.24695310413837 C 112.27529312849045,69.24695310413837 160.66867114663125,67.5250179696083 184.69623960733415,57.8527521878481 C 186.37084430098534,57.31808739721775 191.65612082481385,54.60769634723663 194.41185196876526,52.7240138810873 C 204.328748909235,45.93399568915367 220.8403096866608,26.878138182759283 181.6437693417072,11.47058160066605 C 180.4858642375469,10.93142382860184 175.93932286977767,9.21061193943024 174.90384859204292,8.914075164794927 C 163.0488094162941,5.518504446148877 152.2209441232681,3.929112263917927 152.2209441232681,3.929112263917927 C 152.2209441232681,3.929112263917927 115.60375152826307,-3.6471776789426764 63.114128571748715,3.929112263917927 C 44.6789512503147,6.473263000845913 36.249900115728366,9.307211040258412 36.249900115728366,9.307211040258412 C 36.249900115728366,9.307211040258412 -39.30652057886124,32.02147867918014 30.935572209358213,60.52944587707519 Z" fill="rgb(255, 255, 255)" stroke="rgb(85, 115, 183)" stroke-width="1.5" vector-effect="non-scaling-stroke"/></g><g transform="translate(667.325, 603.95) rotate(0, 68.5, 0)" width="137" height="47"><text text-decoration="none" x="10" fill="#000000" font-weight="bold" font-size="8pt" font-family="Arial"  y="10">TRANSFORMATION&#160;</text><text text-decoration="none" x="113" fill="#000000" font-weight="bold" font-size="8pt" font-family="Arial"  y="10">OF</text><text text-decoration="none" x="127" fill="#000000" font-weight="bold" font-size="8pt" font-family="Arial"  y="10"></text><text text-decoration="none" x="18.5" fill="#000000" font-weight="bold" font-size="8pt" font-family="Arial"  y="24">REQUIREMENTS&#160;</text><text text-decoration="none" x="103.5" fill="#000000" font-weight="bold" font-size="8pt" font-family="Arial"  y="24">TO</text><text text-decoration="none" x="118.5" fill="#000000" font-weight="bold" font-size="8pt" font-family="Arial"  y="24"></text><text text-decoration="none" x="47.5" fill="#000000" font-weight="bold" font-size="8pt" font-family="Arial"  y="43">DESIGN&#160;</text><text text-decoration="none" x="89.5" fill="#4b4b4b" font-size="10pt" font-family="noto_regular"  y="43"></text></g></g><g id="2lqgtqutfj"><g transform="translate(485 1000)"><path d="M 0.7130194306373596,0.14584386348724365 L 127.63047808408737,0.14584386348724365 L 127.63047808408737,46.524192452430725 L 0.7130194306373596,46.524192452430725 Z" fill="rgb(185, 230, 152)" stroke="rgb(64, 114, 8)" stroke-width="2" vector-effect="non-scaling-stroke" stroke-dasharray=""/></g><g transform="translate(501.8, 1012) rotate(0, 0, 0)" width="84" height="19"><text text-decoration="none" x="0" fill="#000000" font-size="9pt" font-family="Arial"  y="15">DEPLOYMENT&#160;</text><text text-decoration="none" x="80" fill="#4b4b4b" font-size="10pt" font-family="noto_regular"  y="15"></text></g></g></svg>